# xmcd
#
# Track frame offsets:
# 150
# 20360
# 33034
# 43434
# 61114
# 73124
# 84676
# 105872
# 119821
# 134666
# 150438
#
# Disc length: 2284 seconds
#
#
# Revision: 0
# Processed by: cddbd v1.5.2PL0 Copyright (c) Steve Scherf et al.
# Submitted via: FreeRIP 2.942 
#
DISCID=9108ea0b
DTITLE=Jim Cogan and Huat and Stief'l Quadrat Live - Waiting For A Train
DYEAR=1900
DGENRE=Country
TTITLE0=T for Texas
TTITLE1=Semi Truck
TTITLE2=Waiting For A Train
TTITLE3=Country Comfort
TTITLE4=Jimmy Brown, The Newsboy
TTITLE5=Jambalaya
TTITLE6=Midnight Special
TTITLE7=My Rifle, My Pony And Me
TTITLE8=North, To Alaska
TTITLE9=Rollin' My Sweet Baby's Arm's
TTITLE10=Will The Circle be Unbroken
EXTD=
EXTT0=
EXTT1=
EXTT2=
EXTT3=
EXTT4=
EXTT5=
EXTT6=
EXTT7=
EXTT8=
EXTT9=
EXTT10=
PLAYORDER=
